<svg xmlns="http://www.w3.org/2000/svg" width="26" height="19" viewBox="0 0 84 60"><path fill="#e12457" d="M77.89 45H6.11C5 29.65 12.47 15.26 24.5 7.98l2.54 22.69c.18 1.64 1.66 2.84 3.31 2.64C32 33.13 33.18 31.65 33 30L30.02 3.32c-.09-.84.18-1.68.75-2.3C31.35.37 32.19 0 33.08 0h17.84c.88 0 1.73.37 2.31 1.02.56.62.84 1.45.76 2.25L51 30c-.18 1.65 1 3.13 2.65 3.31 1.63.19 3.13-.99 3.31-2.64L59.5 7.98C71.53 15.27 79 29.65 77.89 45zM84 55.5c0 2.48-2.02 4.5-4.5 4.5h-75C2.02 60 0 57.98 0 55.5S2.02 51 4.5 51h75c2.48 0 4.5 2.02 4.5 4.5z"/></svg>
