<svg xmlns="http://www.w3.org/2000/svg" width="22" height="31" viewBox="0 0 34 48"><path fill="#e12457" d="M31.81 41.3h-8.86c5.03-1.99 8.59-6.89 8.59-12.64 0-3.05-1.02-5.86-2.72-8.13.34-.76.54-1.6.54-2.48 0-3.12-2.39-5.68-5.43-5.96l1.55-2.53c.62-1.01.31-2.33-.68-2.97l2.87-4.68L24.56 0l-2.87 4.68c-1.02-.6-2.34-.27-2.96.74L9.12 21.08l-1.68-1.03-2.39 3.89 10.12 6.21 2.39-3.89-1.69-1.04 2.44-3.97c1.06 1.67 2.93 2.79 5.06 2.79.49 0 .97-.07 1.43-.18.96 1.36 1.52 3.02 1.52 4.8 0 4.63-3.75 8.38-8.37 8.38-1.4 0-2.71-.35-3.86-.96h2.27v-3.22H0v3.22h6.58c1.53 2.34 3.75 4.18 6.38 5.22H2.94c-1.2 0-2.18.98-2.18 2.18v2.34c0 1.2.98 2.18 2.18 2.18h28.87c1.2 0 2.19-.98 2.19-2.18v-2.34c0-1.2-.99-2.18-2.19-2.18z"/></svg>
