<svg xmlns="http://www.w3.org/2000/svg" width="26" height="27" viewBox="0 0 72 73"><path fill="#e12457" d="M49.25 29.75S51.03 10.48 32.54-.06c0 0-19.03 15.89-15.51 29.21 0 0 9.87 3.13 12.99 12.12.05.13.09.26.13.4 0 0-.58-10.45 4.18-22.65 0 0-3.45 23.02-.6 30.4.01 0 2.15-14.68 15.52-19.67zm-35.8 9.53s9.92 4.44 16.71 12.52c.44.54.55-21.76-29.84-24.44 0 0-5.85 39.14 32.22 36.36 0 0-5.69-14.36-19.09-24.44zm56.89-12s-36.32-.75-34.88 34.84c0 0 9.3-15.77 23.98-21.77 0 0-22.6 13.4-21.8 32.65 0 0 43.9-5.73 32.7-45.72z"/></svg>
