<svg xmlns="http://www.w3.org/2000/svg" width="1600" height="1748"><style>.shp0{fill:#fff;stroke:#e12457;stroke-width:5}.shp1,.shp2{fill:#e12457;stroke:#fff}.shp1{fill:none}</style><g id="Группа 11"><path id="Эллипс 4" d="M714.94-672.97c748.83 2.39 1318.52 535.98 1272.44 1191.8-46.08 655.82-690.49 1185.53-1439.32 1183.14-748.83-2.39-1318.52-535.98-1272.44-1191.8C-678.3-145.65-33.89-675.36 714.94-672.97z" class="shp0"/><path id="Эллипс 3" d="M1326.5 1450c22.92 0 41.5 18.58 41.5 41.5s-18.58 41.5-41.5 41.5-41.5-18.58-41.5-41.5 18.58-41.5 41.5-41.5z" class="shp0"/><path id="Эллипс 3 копия" d="M820.5 1600c40.59 0 73.5 32.91 73.5 73.5s-32.91 73.5-73.5 73.5-73.5-32.91-73.5-73.5 32.91-73.5 73.5-73.5z" class="shp0"/><g id="Page 1" transform="matrix(-.406 .916 -.914 -.405 1107.539 1597.563)"><path id="Path 1" d="M37.1 26.1L24.3 10.8l-.1-.1C18.4 4.9 10.8 1.3 2.7.5c-.6 0-1.2.2-1.6.6-.4.4-.6 1-.6 1.6.8 8.1 4.4 15.7 10.1 21.5l.1.1L26.1 37c.4.3.8.5 1.3.5s1-.2 1.4-.6l2.7-2.7.3.3c.4.4.9.6 1.4.6.5 0 1-.2 1.4-.6.8-.8.8-2 0-2.8l-.3-.3 2.7-2.7c.7-.7.7-1.8.1-2.6z" class="shp2"/><path id="Path 2" d="M34 39.4l2.1 2.2" class="shp1"/><path id="Path 3" d="M36.1 43.5c-.5 0-1-.2-1.4-.6l-2.2-2.2c-.8-.8-.8-2 0-2.8.8-.8 2-.8 2.8 0l2.2 2.2c.8.8.8 2 0 2.8-.4.4-.9.6-1.4.6z" class="shp2"/><path id="Path 4" d="M39.4 33.9l2.2 2.2" class="shp1"/><path id="Path 5" d="M41.6 38.1c-.5 0-1-.2-1.4-.6L38 35.3c-.8-.8-.8-2 0-2.8.8-.8 2-.8 2.8 0l2.2 2.2c.8.8.8 2 0 2.8-.4.4-.9.6-1.4.6z" class="shp2"/><path id="Path 6" d="M11.1 29.6c-1.7 5.3-.1 11.5 4.6 17.2.4.5.9.7 1.5.7h.1c.6 0 1.2-.4 1.5-.9l4.3-6.9-12-10.1z" class="shp2"/><path id="Path 7" d="M47 16c-2.7-3.3-6.5-5.3-10.7-5.7-2.3-.3-4.6 0-6.7.7l10.1 12.1 6.8-4.3c.5-.3.8-.8.9-1.3.1-.5 0-1.1-.4-1.5z" class="shp2"/></g><path id="Earth" fill="#e12457" d="M802.47 1679v-11.66h8.12v2.27h-5.11v2.17h4.8v2.27h-4.8v2.68h5.28v2.27h-8.29zm16.18-3.94h-1.45q-.88 0-1.32.3-.44.3-.44.87 0 .54.35.84.36.3.99.3.79 0 1.33-.57t.54-1.42v-.32zm2.82-1.05v4.99h-2.82v-1.3q-.56.8-1.27 1.17-.7.36-1.71.36-1.36 0-2.21-.79-.84-.8-.84-2.06 0-1.54 1.05-2.26 1.06-.72 3.33-.72h1.65v-.22q0-.66-.52-.97-.53-.31-1.64-.31-.9 0-1.67.18-.77.18-1.44.54v-2.14q.9-.21 1.81-.32.9-.12 1.81-.12 2.37 0 3.41.94 1.06.93 1.06 3.03zm9.09-3.91l.01 2.53q-.37-.17-.73-.25-.36-.08-.73-.08-1.08 0-1.66.69-.58.69-.58 1.98v4.03h-2.8v-8.75h2.8v1.44q.54-.86 1.23-1.25.7-.4 1.68-.4.14 0 .31.01.16.01.47.05zm1.66-2.33h2.8v2.48h2.88v2h-2.88v3.71q0 .61.24.83.24.21.96.21h1.44v2h-2.4q-1.66 0-2.35-.69-.69-.69-.69-2.35v-3.71h-1.39v-2h1.39v-2.48zm16.19 5.9v5.33h-2.82v-4.06q0-1.15-.05-1.58-.05-.43-.17-.63-.17-.28-.45-.43-.28-.15-.64-.15-.87 0-1.37.68-.5.67-.5 1.87v4.3h-2.8v-12.16h2.8v4.69q.63-.76 1.34-1.12.71-.37 1.57-.37 1.52 0 2.3.93.79.93.79 2.7z"/><path id="Mars" fill="#e12457" d="M1310.47 1496v-11.66h3.83l2.65 6.24 2.68-6.24h3.82V1496h-2.85v-8.53l-2.69 6.29h-1.9l-2.69-6.29v8.53h-2.85zm21.17-3.94h-1.45q-.88 0-1.32.3-.44.3-.44.87 0 .54.35.84.36.3.99.3.79 0 1.33-.57t.54-1.42v-.32zm2.82-1.05v4.99h-2.82v-1.3q-.56.8-1.26 1.17-.71.36-1.72.36-1.36 0-2.21-.79-.84-.8-.84-2.06 0-1.54 1.05-2.26 1.07-.72 3.33-.72h1.65v-.22q0-.66-.52-.97-.53-.31-1.64-.31-.89 0-1.67.18-.77.18-1.43.54v-2.14q.89-.21 1.8-.32.91-.12 1.81-.12 2.37 0 3.42.94 1.05.93 1.05 3.03zm9.09-3.91l.01 2.53q-.36-.17-.73-.25-.36-.08-.73-.08-1.08 0-1.66.69-.58.69-.58 1.98v4.03h-2.8v-8.75h2.8v1.44q.54-.86 1.23-1.25.71-.4 1.68-.4.14 0 .31.01.16.01.47.05zm8.24.42v2.13q-.9-.38-1.74-.56-.83-.19-1.57-.19-.8 0-1.19.2-.38.2-.38.61 0 .34.29.52t1.05.26l.49.07q2.15.28 2.89.9.75.63.75 1.96 0 1.4-1.04 2.1-1.03.71-3.07.71-.87 0-1.8-.14-.92-.14-1.9-.41v-2.13q.84.41 1.71.61.88.21 1.79.21.82 0 1.23-.23.42-.23.42-.67 0-.38-.29-.56-.28-.18-1.13-.28l-.5-.07q-1.86-.23-2.61-.86-.75-.64-.75-1.93 0-1.39.95-2.06.95-.67 2.92-.67.78 0 1.63.12.85.11 1.85.36z"/><path id="56 mln km 7 mths" fill="#e12457" d="M1080.18 1664.29c3.21 0 5.66-2.26 5.66-5.43 0-3.07-2.42-5.06-5.3-5.06-1.52 0-2.76.5-3.68 1.18l.17-6h8.02v-1.47h-9.53l-.22 8.43 1.2.57c1.08-.79 2.36-1.32 3.7-1.32 2.33 0 4.08 1.59 4.08 3.75 0 2.2-1.75 3.93-4.06 3.93-1.89 0-3.57-.89-4.87-2.33l-1.01 1.13c1.37 1.59 3.39 2.62 5.84 2.62zm14.83-10.59c-2.14 0-3.99 1.11-4.83 2.79v-.48c0-4.18 2.14-7.37 4.92-7.37 1.56 0 2.81.72 3.87 1.75l.86-1.2c-1.25-1.2-2.78-1.97-4.68-1.97-3.69 0-6.5 3.8-6.5 8.79 0 4.85 1.92 8.28 6.09 8.28 3.24 0 5.64-2.43 5.64-5.45 0-3.1-2.47-5.14-5.37-5.14zm-.29 9.22c-2.38 0-3.82-1.82-4.32-4.54.41-1.92 2.14-3.31 4.32-3.31 2.26 0 4.1 1.56 4.1 3.87 0 2.01-1.65 3.98-4.1 3.98zm22.82-10.98c-1.12 0-2.07.61-2.38 1.57-.37-.96-1.21-1.57-2.3-1.57-1 0-1.8.47-2.15 1.23v-1.06h-.86v7.23h.86v-4.64c0-1.15.84-1.96 2.03-1.96 1.05 0 1.78.85 1.78 2.07v4.53h.87v-4.64c0-1.15.84-1.96 2.03-1.96 1.05 0 1.79.85 1.79 2.07v4.53h.87v-4.64c0-1.61-1.05-2.76-2.54-2.76zm4.66 7.4h.87v-9.78h-.87zm6.26-7.4c-1.07 0-1.99.56-2.38 1.36v-1.19h-.87v7.23h.87v-4.6c0-1.12.99-2 2.26-2 1.15 0 1.96.85 1.96 2.07v4.53h.87v-4.64c0-1.61-1.12-2.76-2.71-2.76zm15.04.17h-1.14l-4.15 4.21v-6.76h-.87v9.78h.87v-1.9l1.41-1.43 2.6 3.33h1.1l-3.08-3.92zm8.95-.17c-1.12 0-2.07.61-2.38 1.57-.37-.96-1.21-1.57-2.3-1.57-1 0-1.8.47-2.15 1.23v-1.06h-.86v7.23h.86v-4.64c0-1.15.84-1.96 2.03-1.96 1.05 0 1.78.85 1.78 2.07v4.53h.87v-4.64c0-1.15.84-1.96 2.03-1.96 1.05 0 1.79.85 1.79 2.07v4.53h.87v-4.64c0-1.61-1.05-2.76-2.54-2.76zm39.59 12.06h1.75l7.22-15.31v-1.18h-11.08v1.47h9.24zm26.52-12.06c-1.12 0-2.07.61-2.38 1.57-.38-.96-1.22-1.57-2.31-1.57-.99 0-1.79.47-2.14 1.23v-1.06h-.87v7.23h.87v-4.64c0-1.15.84-1.96 2.03-1.96 1.05 0 1.78.85 1.78 2.07v4.53h.86v-4.64c0-1.15.84-1.96 2.03-1.96 1.05 0 1.79.85 1.79 2.07v4.53h.87v-4.64c0-1.61-1.05-2.76-2.53-2.76zm7.86 6.46c-.19.19-.5.31-.84.31-.47 0-.87-.43-.87-1.05v-4.76h1.82v-.79h-1.82v-1.99h-.86v1.99h-1.18v.79h1.18v4.76c0 1.08.7 1.85 1.68 1.85.47 0 .96-.17 1.34-.46zm5.19-6.46c-1.06 0-1.98.56-2.38 1.36v-3.74h-.86v9.78h.86v-4.6c0-1.12 1-2 2.27-2 1.15 0 1.96.85 1.96 2.07v4.53h.87v-4.64c0-1.61-1.12-2.76-2.72-2.76zm7.4 7.57c1.46 0 2.61-.85 2.61-2.09 0-1.26-1.04-1.72-2.37-2.14-1.41-.46-1.97-.75-1.97-1.41 0-.7.74-1.13 1.62-1.13.67 0 1.43.23 2.16.68l.43-.67c-.77-.5-1.71-.81-2.59-.81-1.4 0-2.49.82-2.49 2.03 0 1.02.69 1.56 2.42 2.07 1.15.35 1.92.68 1.92 1.47 0 .7-.74 1.2-1.74 1.2-.81 0-1.69-.32-2.53-.92l-.46.64c.85.69 1.97 1.08 2.99 1.08z"/></g></svg>