<svg xmlns="http://www.w3.org/2000/svg" width="30" height="23" viewBox="0 0 59 45"><path xmlns="http://www.w3.org/2000/svg" fill="#e12457" d="M52.3 41.5c1.4 0 2.5.1 2.5.2l-1.2 3.1c0 .1-3.9.2-5.3.2H6.5c-1.3 0-5.3-.1-5.3-.2L0 41.7c0-.1 1.1-.2 2.5-.2h49.8zm6.9-24.2c0 6.4-5.2 11.6-11.6 11.6-.8 0-1.5-.1-2.2-.2l-.8 9.7c0 1-.8 1.8-1.8 1.8H12.1c-1 0-1.8-.8-1.8-1.8l-3-36.7c0-1 .8-1.8 1.8-1.8h21.7v18.6L26.2 17l-3.7 11.2 11.1 3.7 3.7-11.1-5.8-1.9v-19h14.3c1 0 1.8.8 1.8 1.8l-.3 4h.3c6.4 0 11.6 5.2 11.6 11.6zm-4 0c0-4.2-3.4-7.6-7.6-7.6h-.7l-1.2 15c.6.2 1.2.2 1.9.2 1.84 0 3.52-.65 4.84-1.74.37-.3.72-.65 1.03-1.03 1.08-1.31 1.73-2.99 1.73-4.83z"/></svg>
